<svg width="22" height="21" viewBox="0 0 22 21" fill="none" xmlns="http://www.w3.org/2000/svg">
<path d="M14.8828 5.89844L20.4688 6.71875C20.9375 6.79688 21.3281 7.10938 21.4844 7.57812C21.6406 8.00781 21.5234 8.51562 21.1719 8.82812L17.1094 12.8516L18.0859 18.5547C18.1641 19.0234 17.9688 19.4922 17.5781 19.7656C17.1875 20.0781 16.6797 20.0781 16.25 19.8828L11.25 17.1875L6.21094 19.8828C5.82031 20.0781 5.27344 20.0781 4.92188 19.7656C4.53125 19.4922 4.33594 19.0234 4.41406 18.5547L5.35156 12.8516L1.28906 8.82812C0.9375 8.51562 0.820312 8.00781 0.976562 7.57812C1.13281 7.10938 1.52344 6.79688 1.99219 6.71875L7.61719 5.89844L10.1172 0.703125C10.3125 0.273438 10.7422 0 11.25 0C11.7188 0 12.1484 0.273438 12.3438 0.703125L14.8828 5.89844Z" fill="#F3A734"/>
</svg>
